<mxfile host="65bd71144e">
    <diagram name="Сторінка-1" id="bB6b5Yj00dWDQgtBOIpf">
        <mxGraphModel dx="1032" dy="564" grid="1" gridSize="10" guides="1" tooltips="1" connect="1" arrows="1" fold="1" page="1" pageScale="1" pageWidth="827" pageHeight="1169" math="0" shadow="0">
            <root>
                <mxCell id="0"/>
                <mxCell id="1" parent="0"/>
                <mxCell id="abvs9NKfWToayJoQcnZ2-1" value="Питання" style="rounded=0;whiteSpace=wrap;html=1;perimeterSpacing=1;" parent="1" vertex="1">
                    <mxGeometry x="690" y="660" width="120" height="60" as="geometry"/>
                </mxCell>
                <mxCell id="abvs9NKfWToayJoQcnZ2-2" value="Результати тестів" style="rounded=0;whiteSpace=wrap;html=1;perimeterSpacing=1;" parent="1" vertex="1">
                    <mxGeometry x="40" y="660" width="120" height="60" as="geometry"/>
                </mxCell>
                <mxCell id="abvs9NKfWToayJoQcnZ2-3" value="Менеджер тестів" style="rounded=0;whiteSpace=wrap;html=1;strokeWidth=1;perimeterSpacing=1;" parent="1" vertex="1">
                    <mxGeometry x="520" y="555" width="120" height="60" as="geometry"/>
                </mxCell>
                <mxCell id="abvs9NKfWToayJoQcnZ2-4" value="Модуль тестування" style="rounded=0;whiteSpace=wrap;html=1;perimeterSpacing=1;" parent="1" vertex="1">
                    <mxGeometry x="354" y="555" width="120" height="60" as="geometry"/>
                </mxCell>
                <mxCell id="abvs9NKfWToayJoQcnZ2-5" value="Модуль запису результатів" style="rounded=0;whiteSpace=wrap;html=1;perimeterSpacing=1;" parent="1" vertex="1">
                    <mxGeometry x="40" y="555" width="120" height="60" as="geometry"/>
                </mxCell>
                <mxCell id="abvs9NKfWToayJoQcnZ2-6" value="Модуль підрахунку статистики" style="rounded=0;whiteSpace=wrap;html=1;perimeterSpacing=1;" parent="1" vertex="1">
                    <mxGeometry x="200" y="660" width="120" height="60" as="geometry"/>
                </mxCell>
                <mxCell id="abvs9NKfWToayJoQcnZ2-7" value="Чат-бот" style="rounded=0;whiteSpace=wrap;html=1;strokeWidth=3;perimeterSpacing=3;" parent="1" vertex="1">
                    <mxGeometry x="354" y="660" width="120" height="60" as="geometry"/>
                </mxCell>
                <mxCell id="abvs9NKfWToayJoQcnZ2-8" value="" style="endArrow=classic;html=1;rounded=0;entryX=0.5;entryY=0;entryDx=0;entryDy=0;exitX=0.5;exitY=1;exitDx=0;exitDy=0;" parent="1" source="abvs9NKfWToayJoQcnZ2-5" target="abvs9NKfWToayJoQcnZ2-2" edge="1">
                    <mxGeometry width="50" height="50" relative="1" as="geometry">
                        <mxPoint x="390" y="630" as="sourcePoint"/>
                        <mxPoint x="440" y="580" as="targetPoint"/>
                    </mxGeometry>
                </mxCell>
                <mxCell id="abvs9NKfWToayJoQcnZ2-10" value="" style="endArrow=classic;html=1;rounded=0;exitX=1;exitY=0.5;exitDx=0;exitDy=0;entryX=0;entryY=0.5;entryDx=0;entryDy=0;" parent="1" source="abvs9NKfWToayJoQcnZ2-2" target="abvs9NKfWToayJoQcnZ2-6" edge="1">
                    <mxGeometry width="50" height="50" relative="1" as="geometry">
                        <mxPoint x="390" y="630" as="sourcePoint"/>
                        <mxPoint x="440" y="580" as="targetPoint"/>
                    </mxGeometry>
                </mxCell>
                <mxCell id="abvs9NKfWToayJoQcnZ2-11" value="" style="endArrow=classic;startArrow=classic;html=1;rounded=0;exitX=0.5;exitY=0;exitDx=0;exitDy=0;entryX=0.5;entryY=1;entryDx=0;entryDy=0;" parent="1" source="abvs9NKfWToayJoQcnZ2-7" target="abvs9NKfWToayJoQcnZ2-4" edge="1">
                    <mxGeometry width="50" height="50" relative="1" as="geometry">
                        <mxPoint x="390" y="630" as="sourcePoint"/>
                        <mxPoint x="440" y="580" as="targetPoint"/>
                    </mxGeometry>
                </mxCell>
                <mxCell id="abvs9NKfWToayJoQcnZ2-12" value="" style="endArrow=classic;startArrow=classic;html=1;rounded=0;exitX=1;exitY=0.5;exitDx=0;exitDy=0;entryX=0;entryY=0.5;entryDx=0;entryDy=0;" parent="1" source="abvs9NKfWToayJoQcnZ2-6" target="abvs9NKfWToayJoQcnZ2-7" edge="1">
                    <mxGeometry width="50" height="50" relative="1" as="geometry">
                        <mxPoint x="390" y="630" as="sourcePoint"/>
                        <mxPoint x="440" y="580" as="targetPoint"/>
                    </mxGeometry>
                </mxCell>
                <mxCell id="abvs9NKfWToayJoQcnZ2-14" value="" style="endArrow=classic;startArrow=classic;html=1;rounded=0;exitX=0;exitY=0.5;exitDx=0;exitDy=0;entryX=1;entryY=0.5;entryDx=0;entryDy=0;" parent="1" source="abvs9NKfWToayJoQcnZ2-3" target="abvs9NKfWToayJoQcnZ2-4" edge="1">
                    <mxGeometry width="50" height="50" relative="1" as="geometry">
                        <mxPoint x="390" y="630" as="sourcePoint"/>
                        <mxPoint x="440" y="580" as="targetPoint"/>
                    </mxGeometry>
                </mxCell>
                <mxCell id="abvs9NKfWToayJoQcnZ2-15" value="" style="endArrow=classic;html=1;rounded=0;exitX=0;exitY=0.5;exitDx=0;exitDy=0;entryX=1;entryY=0.5;entryDx=0;entryDy=0;" parent="1" source="abvs9NKfWToayJoQcnZ2-4" target="abvs9NKfWToayJoQcnZ2-5" edge="1">
                    <mxGeometry width="50" height="50" relative="1" as="geometry">
                        <mxPoint x="390" y="630" as="sourcePoint"/>
                        <mxPoint x="440" y="580" as="targetPoint"/>
                    </mxGeometry>
                </mxCell>
                <mxCell id="abvs9NKfWToayJoQcnZ2-19" value="Адмін панель" style="rounded=0;whiteSpace=wrap;html=1;strokeWidth=3;perimeterSpacing=3;" parent="1" vertex="1">
                    <mxGeometry x="520" y="460" width="120" height="60" as="geometry"/>
                </mxCell>
                <mxCell id="abvs9NKfWToayJoQcnZ2-20" value="" style="endArrow=classic;startArrow=classic;html=1;rounded=0;exitX=0.5;exitY=0;exitDx=0;exitDy=0;entryX=0.5;entryY=1;entryDx=0;entryDy=0;" parent="1" source="abvs9NKfWToayJoQcnZ2-3" target="abvs9NKfWToayJoQcnZ2-19" edge="1">
                    <mxGeometry width="50" height="50" relative="1" as="geometry">
                        <mxPoint x="390" y="520" as="sourcePoint"/>
                        <mxPoint x="440" y="470" as="targetPoint"/>
                    </mxGeometry>
                </mxCell>
                <mxCell id="abvs9NKfWToayJoQcnZ2-22" value="TELEGRAM API" style="rounded=0;whiteSpace=wrap;html=1;perimeterSpacing=1;" parent="1" vertex="1">
                    <mxGeometry x="354" y="770" width="120" height="60" as="geometry"/>
                </mxCell>
                <mxCell id="abvs9NKfWToayJoQcnZ2-23" value="" style="endArrow=classic;startArrow=classic;html=1;rounded=0;exitX=0.5;exitY=0;exitDx=0;exitDy=0;entryX=0.5;entryY=1;entryDx=0;entryDy=0;" parent="1" source="abvs9NKfWToayJoQcnZ2-22" target="abvs9NKfWToayJoQcnZ2-7" edge="1">
                    <mxGeometry width="50" height="50" relative="1" as="geometry">
                        <mxPoint x="390" y="630" as="sourcePoint"/>
                        <mxPoint x="440" y="580" as="targetPoint"/>
                    </mxGeometry>
                </mxCell>
                <mxCell id="2" value="Тест&lt;br&gt;" style="rounded=0;whiteSpace=wrap;html=1;perimeterSpacing=1;" parent="1" vertex="1">
                    <mxGeometry x="690" y="555" width="120" height="60" as="geometry"/>
                </mxCell>
                <mxCell id="3" value="" style="endArrow=classic;startArrow=classic;html=1;entryX=0;entryY=0.5;entryDx=0;entryDy=0;exitX=1;exitY=0.5;exitDx=0;exitDy=0;" parent="1" source="abvs9NKfWToayJoQcnZ2-3" target="2" edge="1">
                    <mxGeometry width="50" height="50" relative="1" as="geometry">
                        <mxPoint x="390" y="590" as="sourcePoint"/>
                        <mxPoint x="440" y="540" as="targetPoint"/>
                    </mxGeometry>
                </mxCell>
                <mxCell id="5" value="" style="endArrow=classic;startArrow=classic;html=1;entryX=0.5;entryY=1;entryDx=0;entryDy=0;" parent="1" source="abvs9NKfWToayJoQcnZ2-1" target="2" edge="1">
                    <mxGeometry width="50" height="50" relative="1" as="geometry">
                        <mxPoint x="390" y="590" as="sourcePoint"/>
                        <mxPoint x="440" y="540" as="targetPoint"/>
                    </mxGeometry>
                </mxCell>
            </root>
        </mxGraphModel>
    </diagram>
</mxfile>